<mxfile host="app.diagrams.net" modified="2022-08-21T01:43:52.719Z" agent="5.0 (X11)" etag="5kzk8rUewsx4hLAGH6g8" version="20.2.5" type="github">
  <diagram id="C5RBs43oDa-KdzZeNtuy" name="Page-1">
    <mxGraphModel dx="794" dy="1650" grid="1" gridSize="10" guides="1" tooltips="1" connect="1" arrows="1" fold="1" page="1" pageScale="1" pageWidth="827" pageHeight="1169" math="0" shadow="0">
      <root>
        <mxCell id="WIyWlLk6GJQsqaUBKTNV-0" />
        <mxCell id="WIyWlLk6GJQsqaUBKTNV-1" parent="WIyWlLk6GJQsqaUBKTNV-0" />
        <mxCell id="WIyWlLk6GJQsqaUBKTNV-2" value="" style="rounded=0;html=1;jettySize=auto;orthogonalLoop=1;fontSize=11;endArrow=block;endFill=0;endSize=8;strokeWidth=1;shadow=0;labelBackgroundColor=none;edgeStyle=orthogonalEdgeStyle;" parent="WIyWlLk6GJQsqaUBKTNV-1" source="nDEjDnN1kgDwxqb6IUxM-1" target="WIyWlLk6GJQsqaUBKTNV-6" edge="1">
          <mxGeometry relative="1" as="geometry">
            <mxPoint x="220" y="120" as="sourcePoint" />
          </mxGeometry>
        </mxCell>
        <mxCell id="nDEjDnN1kgDwxqb6IUxM-4" value="true " style="edgeStyle=orthogonalEdgeStyle;rounded=0;orthogonalLoop=1;jettySize=auto;html=1;exitX=1;exitY=0.5;exitDx=0;exitDy=0;" edge="1" parent="WIyWlLk6GJQsqaUBKTNV-1" source="WIyWlLk6GJQsqaUBKTNV-6" target="nDEjDnN1kgDwxqb6IUxM-3">
          <mxGeometry x="-0.5" y="10" relative="1" as="geometry">
            <Array as="points">
              <mxPoint x="560" y="-20" />
            </Array>
            <mxPoint as="offset" />
          </mxGeometry>
        </mxCell>
        <mxCell id="nDEjDnN1kgDwxqb6IUxM-23" value="false" style="edgeStyle=orthogonalEdgeStyle;rounded=0;orthogonalLoop=1;jettySize=auto;html=1;" edge="1" parent="WIyWlLk6GJQsqaUBKTNV-1" source="WIyWlLk6GJQsqaUBKTNV-6" target="nDEjDnN1kgDwxqb6IUxM-22">
          <mxGeometry x="-0.2" y="-10" relative="1" as="geometry">
            <Array as="points">
              <mxPoint x="270" y="-20" />
            </Array>
            <mxPoint as="offset" />
          </mxGeometry>
        </mxCell>
        <mxCell id="WIyWlLk6GJQsqaUBKTNV-6" value="A&amp;gt;B" style="rhombus;whiteSpace=wrap;html=1;shadow=0;fontFamily=Helvetica;fontSize=12;align=center;strokeWidth=1;spacing=6;spacingTop=-4;" parent="WIyWlLk6GJQsqaUBKTNV-1" vertex="1">
          <mxGeometry x="400" y="-60" width="100" height="80" as="geometry" />
        </mxCell>
        <mxCell id="nDEjDnN1kgDwxqb6IUxM-2" style="edgeStyle=orthogonalEdgeStyle;rounded=0;orthogonalLoop=1;jettySize=auto;html=1;entryX=0.5;entryY=0;entryDx=0;entryDy=0;" edge="1" parent="WIyWlLk6GJQsqaUBKTNV-1" source="nDEjDnN1kgDwxqb6IUxM-0" target="nDEjDnN1kgDwxqb6IUxM-1">
          <mxGeometry relative="1" as="geometry" />
        </mxCell>
        <mxCell id="nDEjDnN1kgDwxqb6IUxM-0" value="START" style="ellipse;whiteSpace=wrap;html=1;" vertex="1" parent="WIyWlLk6GJQsqaUBKTNV-1">
          <mxGeometry x="390" y="-240" width="120" height="60" as="geometry" />
        </mxCell>
        <mxCell id="nDEjDnN1kgDwxqb6IUxM-1" value="READ A, B, C" style="shape=parallelogram;perimeter=parallelogramPerimeter;whiteSpace=wrap;html=1;fixedSize=1;" vertex="1" parent="WIyWlLk6GJQsqaUBKTNV-1">
          <mxGeometry x="390" y="-150" width="120" height="60" as="geometry" />
        </mxCell>
        <mxCell id="nDEjDnN1kgDwxqb6IUxM-9" value="true" style="edgeStyle=orthogonalEdgeStyle;rounded=0;orthogonalLoop=1;jettySize=auto;html=1;" edge="1" parent="WIyWlLk6GJQsqaUBKTNV-1" source="nDEjDnN1kgDwxqb6IUxM-3" target="nDEjDnN1kgDwxqb6IUxM-8">
          <mxGeometry x="-0.2727" y="10" relative="1" as="geometry">
            <Array as="points">
              <mxPoint x="690" y="40" />
            </Array>
            <mxPoint as="offset" />
          </mxGeometry>
        </mxCell>
        <mxCell id="nDEjDnN1kgDwxqb6IUxM-20" value="false" style="edgeStyle=orthogonalEdgeStyle;rounded=0;orthogonalLoop=1;jettySize=auto;html=1;" edge="1" parent="WIyWlLk6GJQsqaUBKTNV-1" source="nDEjDnN1kgDwxqb6IUxM-3">
          <mxGeometry x="-0.5" y="-10" relative="1" as="geometry">
            <mxPoint x="480" y="90" as="targetPoint" />
            <Array as="points">
              <mxPoint x="480" y="40" />
              <mxPoint x="480" y="80" />
            </Array>
            <mxPoint as="offset" />
          </mxGeometry>
        </mxCell>
        <mxCell id="nDEjDnN1kgDwxqb6IUxM-3" value="A&amp;gt;C" style="rhombus;whiteSpace=wrap;html=1;shadow=0;fontFamily=Helvetica;fontSize=12;align=center;strokeWidth=1;spacing=6;spacingTop=-4;" vertex="1" parent="WIyWlLk6GJQsqaUBKTNV-1">
          <mxGeometry x="510" width="100" height="80" as="geometry" />
        </mxCell>
        <mxCell id="nDEjDnN1kgDwxqb6IUxM-11" value="true" style="edgeStyle=orthogonalEdgeStyle;rounded=0;orthogonalLoop=1;jettySize=auto;html=1;" edge="1" parent="WIyWlLk6GJQsqaUBKTNV-1" source="nDEjDnN1kgDwxqb6IUxM-8" target="nDEjDnN1kgDwxqb6IUxM-10">
          <mxGeometry x="-0.3846" y="10" relative="1" as="geometry">
            <Array as="points">
              <mxPoint x="800" y="110" />
            </Array>
            <mxPoint as="offset" />
          </mxGeometry>
        </mxCell>
        <mxCell id="nDEjDnN1kgDwxqb6IUxM-14" value="false" style="edgeStyle=orthogonalEdgeStyle;rounded=0;orthogonalLoop=1;jettySize=auto;html=1;" edge="1" parent="WIyWlLk6GJQsqaUBKTNV-1" source="nDEjDnN1kgDwxqb6IUxM-8" target="nDEjDnN1kgDwxqb6IUxM-13">
          <mxGeometry x="-0.4545" y="-10" relative="1" as="geometry">
            <Array as="points">
              <mxPoint x="600" y="110" />
            </Array>
            <mxPoint as="offset" />
          </mxGeometry>
        </mxCell>
        <mxCell id="nDEjDnN1kgDwxqb6IUxM-8" value="B&amp;gt;C" style="rhombus;whiteSpace=wrap;html=1;shadow=0;fontFamily=Helvetica;fontSize=12;align=center;strokeWidth=1;spacing=6;spacingTop=-4;" vertex="1" parent="WIyWlLk6GJQsqaUBKTNV-1">
          <mxGeometry x="640" y="70" width="100" height="80" as="geometry" />
        </mxCell>
        <mxCell id="nDEjDnN1kgDwxqb6IUxM-42" style="edgeStyle=orthogonalEdgeStyle;rounded=0;orthogonalLoop=1;jettySize=auto;html=1;entryX=0.5;entryY=0;entryDx=0;entryDy=0;" edge="1" parent="WIyWlLk6GJQsqaUBKTNV-1" source="nDEjDnN1kgDwxqb6IUxM-10" target="nDEjDnN1kgDwxqb6IUxM-38">
          <mxGeometry relative="1" as="geometry">
            <Array as="points">
              <mxPoint x="800" y="270" />
              <mxPoint x="460" y="270" />
            </Array>
          </mxGeometry>
        </mxCell>
        <mxCell id="nDEjDnN1kgDwxqb6IUxM-10" value="&lt;div&gt;PRINT&lt;/div&gt;&lt;div&gt;&lt;br&gt;&lt;/div&gt;C, B, A" style="shape=parallelogram;perimeter=parallelogramPerimeter;whiteSpace=wrap;html=1;fixedSize=1;shadow=0;strokeWidth=1;spacing=6;spacingTop=-4;" vertex="1" parent="WIyWlLk6GJQsqaUBKTNV-1">
          <mxGeometry x="740" y="180" width="120" height="60" as="geometry" />
        </mxCell>
        <mxCell id="nDEjDnN1kgDwxqb6IUxM-44" style="edgeStyle=orthogonalEdgeStyle;rounded=0;orthogonalLoop=1;jettySize=auto;html=1;entryX=0.5;entryY=0;entryDx=0;entryDy=0;" edge="1" parent="WIyWlLk6GJQsqaUBKTNV-1" source="nDEjDnN1kgDwxqb6IUxM-13" target="nDEjDnN1kgDwxqb6IUxM-38">
          <mxGeometry relative="1" as="geometry">
            <Array as="points">
              <mxPoint x="606" y="270" />
              <mxPoint x="460" y="270" />
            </Array>
          </mxGeometry>
        </mxCell>
        <mxCell id="nDEjDnN1kgDwxqb6IUxM-13" value="&lt;div&gt;PRINT&lt;/div&gt;&lt;div&gt;&lt;br&gt;&lt;/div&gt;B, C, A" style="shape=parallelogram;perimeter=parallelogramPerimeter;whiteSpace=wrap;html=1;fixedSize=1;shadow=0;strokeWidth=1;spacing=6;spacingTop=-4;" vertex="1" parent="WIyWlLk6GJQsqaUBKTNV-1">
          <mxGeometry x="546" y="180" width="120" height="60" as="geometry" />
        </mxCell>
        <mxCell id="nDEjDnN1kgDwxqb6IUxM-45" style="edgeStyle=orthogonalEdgeStyle;rounded=0;orthogonalLoop=1;jettySize=auto;html=1;entryX=0.5;entryY=0;entryDx=0;entryDy=0;" edge="1" parent="WIyWlLk6GJQsqaUBKTNV-1" source="nDEjDnN1kgDwxqb6IUxM-17" target="nDEjDnN1kgDwxqb6IUxM-38">
          <mxGeometry relative="1" as="geometry">
            <Array as="points">
              <mxPoint x="460" y="210" />
              <mxPoint x="460" y="210" />
            </Array>
          </mxGeometry>
        </mxCell>
        <mxCell id="nDEjDnN1kgDwxqb6IUxM-17" value="&lt;div&gt;PRINT &lt;br&gt;&lt;/div&gt;&lt;div&gt;B, A, C&lt;br&gt;&lt;/div&gt;" style="shape=parallelogram;perimeter=parallelogramPerimeter;whiteSpace=wrap;html=1;fixedSize=1;" vertex="1" parent="WIyWlLk6GJQsqaUBKTNV-1">
          <mxGeometry x="414" y="90" width="120" height="50" as="geometry" />
        </mxCell>
        <mxCell id="nDEjDnN1kgDwxqb6IUxM-29" value="true" style="edgeStyle=orthogonalEdgeStyle;rounded=0;orthogonalLoop=1;jettySize=auto;html=1;" edge="1" parent="WIyWlLk6GJQsqaUBKTNV-1" source="nDEjDnN1kgDwxqb6IUxM-22" target="nDEjDnN1kgDwxqb6IUxM-28">
          <mxGeometry x="-0.3333" y="10" relative="1" as="geometry">
            <Array as="points">
              <mxPoint x="350" y="50" />
            </Array>
            <mxPoint as="offset" />
          </mxGeometry>
        </mxCell>
        <mxCell id="nDEjDnN1kgDwxqb6IUxM-37" style="edgeStyle=orthogonalEdgeStyle;rounded=0;orthogonalLoop=1;jettySize=auto;html=1;entryX=0.575;entryY=0.017;entryDx=0;entryDy=0;entryPerimeter=0;" edge="1" parent="WIyWlLk6GJQsqaUBKTNV-1" source="nDEjDnN1kgDwxqb6IUxM-22" target="nDEjDnN1kgDwxqb6IUxM-34">
          <mxGeometry relative="1" as="geometry" />
        </mxCell>
        <mxCell id="nDEjDnN1kgDwxqb6IUxM-22" value="B&amp;gt;C" style="rhombus;whiteSpace=wrap;html=1;shadow=0;strokeWidth=1;spacing=6;spacingTop=-4;" vertex="1" parent="WIyWlLk6GJQsqaUBKTNV-1">
          <mxGeometry x="230" y="10" width="80" height="80" as="geometry" />
        </mxCell>
        <mxCell id="nDEjDnN1kgDwxqb6IUxM-41" style="edgeStyle=orthogonalEdgeStyle;rounded=0;orthogonalLoop=1;jettySize=auto;html=1;entryX=0.5;entryY=0;entryDx=0;entryDy=0;" edge="1" parent="WIyWlLk6GJQsqaUBKTNV-1" source="nDEjDnN1kgDwxqb6IUxM-24" target="nDEjDnN1kgDwxqb6IUxM-38">
          <mxGeometry relative="1" as="geometry">
            <Array as="points">
              <mxPoint x="370" y="270" />
              <mxPoint x="460" y="270" />
            </Array>
          </mxGeometry>
        </mxCell>
        <mxCell id="nDEjDnN1kgDwxqb6IUxM-24" value="&lt;div&gt;PRINT &lt;br&gt;&lt;/div&gt;&lt;div&gt;C, A, B&lt;br&gt;&lt;/div&gt;" style="shape=parallelogram;perimeter=parallelogramPerimeter;whiteSpace=wrap;html=1;fixedSize=1;" vertex="1" parent="WIyWlLk6GJQsqaUBKTNV-1">
          <mxGeometry x="310" y="180" width="120" height="60" as="geometry" />
        </mxCell>
        <mxCell id="nDEjDnN1kgDwxqb6IUxM-31" value="true" style="edgeStyle=orthogonalEdgeStyle;rounded=0;orthogonalLoop=1;jettySize=auto;html=1;" edge="1" parent="WIyWlLk6GJQsqaUBKTNV-1" source="nDEjDnN1kgDwxqb6IUxM-28" target="nDEjDnN1kgDwxqb6IUxM-24">
          <mxGeometry x="0.6" y="-10" relative="1" as="geometry">
            <mxPoint x="10" y="-10" as="offset" />
          </mxGeometry>
        </mxCell>
        <mxCell id="nDEjDnN1kgDwxqb6IUxM-33" value="false" style="edgeStyle=orthogonalEdgeStyle;rounded=0;orthogonalLoop=1;jettySize=auto;html=1;entryX=0.5;entryY=0;entryDx=0;entryDy=0;" edge="1" parent="WIyWlLk6GJQsqaUBKTNV-1" source="nDEjDnN1kgDwxqb6IUxM-28" target="nDEjDnN1kgDwxqb6IUxM-32">
          <mxGeometry x="-0.5385" y="-10" relative="1" as="geometry">
            <Array as="points">
              <mxPoint x="250" y="110" />
            </Array>
            <mxPoint as="offset" />
          </mxGeometry>
        </mxCell>
        <mxCell id="nDEjDnN1kgDwxqb6IUxM-28" value="A&amp;gt;C" style="rhombus;whiteSpace=wrap;html=1;shadow=0;strokeWidth=1;spacing=6;spacingTop=-4;" vertex="1" parent="WIyWlLk6GJQsqaUBKTNV-1">
          <mxGeometry x="310" y="70" width="80" height="80" as="geometry" />
        </mxCell>
        <mxCell id="nDEjDnN1kgDwxqb6IUxM-40" style="edgeStyle=orthogonalEdgeStyle;rounded=0;orthogonalLoop=1;jettySize=auto;html=1;entryX=0.5;entryY=0;entryDx=0;entryDy=0;" edge="1" parent="WIyWlLk6GJQsqaUBKTNV-1" source="nDEjDnN1kgDwxqb6IUxM-32" target="nDEjDnN1kgDwxqb6IUxM-38">
          <mxGeometry relative="1" as="geometry">
            <Array as="points">
              <mxPoint x="250" y="270" />
              <mxPoint x="460" y="270" />
            </Array>
          </mxGeometry>
        </mxCell>
        <mxCell id="nDEjDnN1kgDwxqb6IUxM-32" value="&lt;div&gt;PRINT &lt;br&gt;&lt;/div&gt;&lt;div&gt;A, C, B&lt;br&gt;&lt;/div&gt;" style="shape=parallelogram;perimeter=parallelogramPerimeter;whiteSpace=wrap;html=1;fixedSize=1;" vertex="1" parent="WIyWlLk6GJQsqaUBKTNV-1">
          <mxGeometry x="190" y="180" width="120" height="60" as="geometry" />
        </mxCell>
        <mxCell id="nDEjDnN1kgDwxqb6IUxM-39" style="edgeStyle=orthogonalEdgeStyle;rounded=0;orthogonalLoop=1;jettySize=auto;html=1;exitX=0.5;exitY=1;exitDx=0;exitDy=0;" edge="1" parent="WIyWlLk6GJQsqaUBKTNV-1" source="nDEjDnN1kgDwxqb6IUxM-34" target="nDEjDnN1kgDwxqb6IUxM-38">
          <mxGeometry relative="1" as="geometry">
            <Array as="points">
              <mxPoint x="120" y="270" />
              <mxPoint x="460" y="270" />
            </Array>
          </mxGeometry>
        </mxCell>
        <mxCell id="nDEjDnN1kgDwxqb6IUxM-34" value="&lt;div&gt;PRINT&lt;/div&gt;&lt;div&gt;A, B. C&lt;/div&gt;" style="shape=parallelogram;perimeter=parallelogramPerimeter;whiteSpace=wrap;html=1;fixedSize=1;" vertex="1" parent="WIyWlLk6GJQsqaUBKTNV-1">
          <mxGeometry x="60" y="180" width="120" height="60" as="geometry" />
        </mxCell>
        <mxCell id="nDEjDnN1kgDwxqb6IUxM-38" value="END " style="ellipse;whiteSpace=wrap;html=1;" vertex="1" parent="WIyWlLk6GJQsqaUBKTNV-1">
          <mxGeometry x="400" y="310" width="120" height="50" as="geometry" />
        </mxCell>
      </root>
    </mxGraphModel>
  </diagram>
</mxfile>
